<svg width="161" height="243" viewBox="0 0 161 243" fill="none" xmlns="http://www.w3.org/2000/svg">
<g id="Esmalte">
<path id="Vector" d="M81.6429 224.999C78.1729 225.028 74.7329 224.243 71.5229 222.69C68.3129 221.137 65.3969 218.847 62.9449 215.954L56.6099 208.488L88.2859 171.158L69.2789 148.754L113.498 96.6341C117.06 92.4421 122.798 92.3681 126.292 96.4811L157.969 133.822C159.68 135.839 160.598 138.548 160.549 141.441C160.502 144.248 159.532 146.923 157.843 148.902L101.654 215.136C96.5139 221.26 89.5579 224.792 82.2519 224.989L81.6429 224.999ZM69.2789 208.488C72.6389 212.448 77.1319 214.486 82.0599 214.434C87.0539 214.286 91.8059 211.862 95.3149 207.67L151.509 141.436L119.963 103.947L81.9479 148.749L94.6209 163.686C96.3099 165.672 97.2409 168.328 97.2409 171.152C97.2409 173.972 96.3099 176.623 94.6249 178.619L69.2789 208.488Z" fill="black"/>
<path id="Vector_2" d="M31.8498 242.213C28.9668 242.22 26.1118 241.543 23.4478 240.222C20.7838 238.901 18.3648 236.961 16.3278 234.514L13.2238 230.791C11.5678 228.806 10.6548 226.163 10.6548 223.345C10.6548 220.528 11.5678 217.879 13.2238 215.894L75.3158 141.425L93.9468 163.768C95.6028 165.748 96.5158 168.396 96.5158 171.214C96.5158 174.025 95.6028 176.669 93.9518 178.659L47.3718 234.514C45.3358 236.961 42.9158 238.901 40.2518 240.222C37.5878 241.543 34.7328 242.22 31.8498 242.213ZM19.4318 223.345L22.5368 227.068C25.0098 230.026 28.3598 231.688 31.8518 231.688C35.3448 231.688 38.6948 230.026 41.1678 227.068L87.7388 171.219L75.3158 156.322L19.4318 223.345ZM26.8438 73.7221H18.0618C13.2188 73.7221 9.27979 68.9981 9.27979 63.1901V10.5316C9.27979 4.7234 13.2188 0 18.0618 0H26.8438C31.6878 0 35.6258 4.7234 35.6258 10.5316V63.1901C35.6258 68.9981 31.6878 73.7221 26.8438 73.7221ZM18.0618 10.5316V63.1901H26.8488L26.8438 10.5316H18.0618Z" fill="black"/>
<path id="Vector_3" d="M22.2728 116.803C21.0418 116.803 19.8618 116.256 18.9918 115.283C18.1218 114.309 17.6328 112.989 17.6328 111.612V75.273C17.6328 73.896 18.1218 72.576 18.9918 71.602C19.8618 70.629 21.0418 70.082 22.2728 70.082C23.5038 70.082 24.6838 70.629 25.5538 71.602C26.4238 72.576 26.9128 73.896 26.9128 75.273V111.612C26.9128 112.989 26.4238 114.309 25.5538 115.283C24.6838 116.256 23.5038 116.803 22.2728 116.803Z" fill="black"/>
<path id="Vector_4" d="M35.0918 168.442H9.44884C6.19784 168.442 3.21884 166.637 1.47684 163.614C0.683842 162.266 0.191842 160.707 0.0458425 159.08C-0.100158 157.452 0.103837 155.808 0.639837 154.296L22.2708 92.2131L43.9058 154.302C44.4418 155.813 44.6458 157.457 44.4998 159.085C44.3538 160.712 43.8618 162.271 43.0678 163.62C41.3268 166.637 38.3478 168.442 35.0918 168.442ZM9.03884 157.996C9.13284 157.996 9.27084 158.037 9.44884 158.037H35.0968C35.4618 158.037 35.6448 157.871 35.6798 157.808L22.2928 119.756L8.95884 158.016C8.98384 158.001 9.01184 157.994 9.03884 157.996Z" fill="black"/>
</g>
</svg>
