<svg width="71" height="70" viewBox="0 0 71 70" fill="none" xmlns="http://www.w3.org/2000/svg">
<path d="M36.1047 65.0252C34.5702 65.0335 33.0489 64.8067 31.6294 64.3579C30.2098 63.909 28.9203 63.2472 27.8359 62.4111L25.0344 60.2535L39.0424 49.465L30.637 42.9902L50.1919 27.9275C51.7671 26.716 54.3046 26.6946 55.8497 27.8832L69.8582 38.6749C70.6149 39.2578 71.0208 40.0407 70.9991 40.8768C70.9784 41.688 70.5494 42.4611 69.8025 43.033L44.9541 62.1747C42.6811 63.9446 39.6049 64.9653 36.374 65.0223L36.1047 65.0252ZM30.637 60.2535C32.1229 61.3979 34.1098 61.9869 36.2891 61.9719C38.4976 61.9291 40.5991 61.2285 42.1509 60.0171L67.0014 40.8753L53.0509 30.0409L36.2396 42.9888L41.844 47.3056C42.5909 47.8796 43.0026 48.6471 43.0026 49.4633C43.0026 50.2783 42.5909 51.0444 41.8457 51.6213L30.637 60.2535Z" fill="#FFBABA"/>
<path d="M14.0848 70C12.8099 70.002 11.5473 69.8064 10.3692 69.4246C9.19115 69.0428 8.1214 68.4821 7.22058 67.775L5.84791 66.699C5.11558 66.1253 4.71182 65.3615 4.71182 64.5471C4.71182 63.733 5.11558 62.9674 5.84791 62.3938L33.3067 40.8721L41.5459 47.3292C42.2782 47.9015 42.682 48.6667 42.682 49.4812C42.682 50.2935 42.2782 51.0577 41.5481 51.6328L20.9491 67.775C20.0487 68.4821 18.9785 69.0428 17.8004 69.4246C16.6223 69.8064 15.3598 70.002 14.0848 70ZM8.59326 64.5471L9.96638 65.6231C11.06 66.4779 12.5415 66.9582 14.0857 66.9582C15.6304 66.9582 17.1119 66.4779 18.2055 65.6231L38.8005 49.4826L33.3067 45.1773L8.59326 64.5471ZM11.8711 21.3058H7.98741C5.8457 21.3058 4.10376 19.9406 4.10376 18.262V3.04365C4.10376 1.36507 5.8457 0 7.98741 0H11.8711C14.0132 0 15.7547 1.36507 15.7547 3.04365V18.262C15.7547 19.9406 14.0132 21.3058 11.8711 21.3058ZM7.98741 3.04365V18.262H11.8733L11.8711 3.04365H7.98741Z" fill="#FFBABA"/>
<path d="M9.84967 33.7564C9.30528 33.7564 8.78345 33.5983 8.39871 33.3171C8.01398 33.0356 7.79773 32.6541 7.79773 32.2561V21.7541C7.79773 21.3562 8.01398 20.9747 8.39871 20.6932C8.78345 20.412 9.30528 20.2539 9.84967 20.2539C10.394 20.2539 10.9159 20.412 11.3006 20.6932C11.6854 20.9747 11.9016 21.3562 11.9016 21.7541V32.2561C11.9016 32.6541 11.6854 33.0356 11.3006 33.3171C10.9159 33.5983 10.394 33.7564 9.84967 33.7564Z" fill="#FFBABA"/>
<path d="M15.5186 48.68H4.17854C2.74086 48.68 1.42346 48.1583 0.653101 47.2847C0.302414 46.8951 0.0848381 46.4445 0.0202728 45.9743C-0.0442925 45.5038 0.0459194 45.0287 0.282954 44.5917L9.84879 26.6497L19.4164 44.5935C19.6534 45.0302 19.7436 45.5053 19.6791 45.9758C19.6145 46.446 19.3969 46.8965 19.0458 47.2864C18.2759 48.1583 16.9585 48.68 15.5186 48.68ZM3.99723 45.6611C4.0388 45.6611 4.09982 45.6729 4.17854 45.6729H15.5208C15.6822 45.6729 15.7631 45.6249 15.7786 45.6067L9.85851 34.6096L3.96185 45.6668C3.9729 45.6625 3.98529 45.6605 3.99723 45.6611Z" fill="#FFBABA"/>
</svg>
