<svg width="59" height="56" viewBox="0 0 59 56" fill="none" xmlns="http://www.w3.org/2000/svg">
<path d="M11.7059 19.0249C17.0663 19.0249 21.4118 15.2137 21.4118 10.5124C21.4118 5.81115 17.0663 2 11.7059 2C6.34547 2 2 5.81115 2 10.5124C2 15.2137 6.34547 19.0249 11.7059 19.0249Z" stroke="#FFBABA" stroke-width="4" stroke-linecap="round" stroke-linejoin="round"/>
<path d="M11.7059 53.0976C17.0663 53.0976 21.4118 49.2865 21.4118 44.5852C21.4118 39.8839 17.0663 36.0728 11.7059 36.0728C6.34547 36.0728 2 39.8839 2 44.5852C2 49.2865 6.34547 53.0976 11.7059 53.0976Z" stroke="#FFBABA" stroke-width="4" stroke-linecap="round" stroke-linejoin="round"/>
<path d="M57 4.8606L18.5647 38.5702" stroke="#FFBABA" stroke-width="4" stroke-linecap="round" stroke-linejoin="round"/>
<path d="M39.1088 34.5974L56.9999 50.2605" stroke="#FFBABA" stroke-width="4" stroke-linecap="round" stroke-linejoin="round"/>
<path d="M18.5647 16.551L31.1176 27.5604" stroke="#FFBABA" stroke-width="4" stroke-linecap="round" stroke-linejoin="round"/>
</svg>
