<svg width="150" height="165" viewBox="0 0 150 165" fill="none" xmlns="http://www.w3.org/2000/svg">
<g id="Tijeras">
<path id="Vector" d="M29.5658 56.6393C43.133 56.6393 54.1315 45.0795 54.1315 30.8197C54.1315 16.5599 43.133 5 29.5658 5C15.9985 5 5 16.5599 5 30.8197C5 45.0795 15.9985 56.6393 29.5658 56.6393Z" stroke="black" stroke-width="10" stroke-linecap="round" stroke-linejoin="round"/>
<path id="Vector_2" d="M29.5658 159.918C43.133 159.918 54.1315 148.358 54.1315 134.098C54.1315 119.839 43.133 108.279 29.5658 108.279C15.9985 108.279 5 119.839 5 134.098C5 148.358 15.9985 159.918 29.5658 159.918Z" stroke="black" stroke-width="10" stroke-linecap="round" stroke-linejoin="round"/>
<path id="Vector_3" d="M144.206 13.6067L46.9255 115.852" stroke="black" stroke-width="10" stroke-linecap="round" stroke-linejoin="round"/>
<path id="Vector_4" d="M98.9231 103.803L144.206 151.311" stroke="black" stroke-width="10" stroke-linecap="round" stroke-linejoin="round"/>
<path id="Vector_5" d="M46.9255 49.0657L78.6972 82.4591" stroke="black" stroke-width="10" stroke-linecap="round" stroke-linejoin="round"/>
</g>
</svg>
